<?xml version="1.0" standalone="no"?>
<!DOCTYPE svg PUBLIC "-//W3C//DTD SVG 20010904//EN"
 "http://www.w3.org/TR/2001/REC-SVG-20010904/DTD/svg10.dtd">
<svg version="1.0" xmlns="http://www.w3.org/2000/svg"
 width="256.000000pt" height="256.000000pt" viewBox="0 0 256.000000 256.000000"
 preserveAspectRatio="xMidYMid meet">

<g transform="translate(0.000000,256.000000) scale(0.100000,-0.100000)"
fill="#000000" stroke="none">
<path d="M1075 2176 c-181 -59 -221 -105 -336 -387 -38 -96 -77 -184 -84 -196
-8 -12 -60 -58 -115 -103 -109 -88 -135 -119 -126 -148 7 -22 82 -65 158 -91
46 -16 53 -21 63 -57 10 -36 14 -39 43 -38 40 2 54 14 102 84 21 30 50 66 65
80 l27 25 -7 -37 c-16 -85 36 -188 116 -228 61 -32 151 -27 215 10 57 32 85
71 105 140 15 55 41 80 84 80 47 0 79 -30 94 -88 27 -107 119 -171 228 -158
32 4 68 8 81 9 12 1 22 7 22 13 0 6 7 17 16 25 13 10 17 10 24 0 8 -14 12 0
25 86 8 51 12 55 100 83 94 31 162 66 175 91 10 18 4 28 -57 89 -37 37 -95 90
-128 117 -65 54 -80 80 -180 321 -97 233 -212 302 -500 302 -118 -1 -151 -4
-210 -24z m28 -713 c-13 -2 -33 -2 -45 0 -13 2 -3 4 22 4 25 0 35 -2 23 -4z
m390 -45 c2 -18 0 -39 -6 -47 -6 -7 -11 -23 -12 -35 0 -15 -5 -20 -20 -18 -77
14 -97 13 -120 -2 -32 -21 -35 -20 -35 7 0 13 -7 32 -15 43 -8 10 -15 27 -15
36 0 9 -10 24 -22 32 -21 15 -13 16 109 16 l131 0 5 -32z m283 16 c18 -14 18
-14 -6 -3 -31 14 -36 19 -24 19 6 0 19 -7 30 -16z m-46 -59 c9 -8 23 -15 32
-15 26 0 48 -36 55 -89 6 -56 13 -62 36 -28 14 21 15 20 8 -18 -10 -54 -25
-79 -64 -109 -97 -73 -227 -43 -281 66 -26 52 -34 112 -16 123 5 3 7 11 4 18
-2 7 2 21 10 32 12 16 15 17 16 4 0 -9 -3 -19 -6 -22 -14 -14 -13 -82 2 -104
18 -28 77 -32 112 -7 17 12 22 12 22 2 1 -8 6 -6 15 6 24 32 18 65 -18 101
-31 31 -33 35 -18 50 18 19 65 14 91 -10z m-535 -2 c33 -9 66 -20 72 -26 40
-30 16 -161 -39 -214 -89 -86 -214 -82 -295 10 -56 64 -66 165 -23 220 17 22
26 24 122 25 68 1 124 -4 163 -15z m385 -63 c0 -11 -7 -20 -15 -20 -15 0 -21
21 -8 33 12 13 23 7 23 -13z"/>
<path d="M1721 1322 c19 -22 36 -39 38 -37 7 8 -29 54 -51 66 -16 9 -13 2 13
-29z"/>
<path d="M1026 1328 c-19 -26 -21 -84 -5 -94 6 -4 43 -8 80 -9 78 -4 93 8 87
68 -4 41 -29 56 -95 57 -42 0 -55 -4 -67 -22z m54 -18 c0 -11 -6 -20 -14 -20
-18 0 -29 16 -21 30 11 18 35 11 35 -10z"/>
<path d="M960 1310 c-14 -10 -22 -21 -19 -24 3 -3 16 5 29 19 28 30 24 32 -10
5z"/>
<path d="M1209 1305 c17 -34 31 -51 31 -39 0 7 -9 22 -21 35 -16 19 -18 20
-10 4z"/>
<path d="M780 1072 c0 -45 -24 -68 -61 -59 -10 3 -17 1 -13 -4 3 -5 20 -9 38
-9 26 0 39 -8 67 -42 19 -23 45 -61 59 -84 27 -46 105 -134 119 -134 4 0 16
-9 26 -20 27 -29 193 -107 255 -119 110 -21 229 15 335 103 99 82 144 146 173
245 8 26 23 46 42 58 17 9 30 22 30 27 0 6 -5 5 -12 -2 -19 -19 -38 -14 -39
11 0 12 -8 -5 -18 -38 -24 -84 -52 -134 -111 -198 -102 -111 -245 -198 -331
-199 -80 -1 -189 54 -331 168 -77 62 -113 111 -180 243 -48 94 -48 95 -48 53z"/>
<path d="M666 1070 c7 -28 12 -35 18 -29 2 2 -2 15 -10 29 l-15 25 7 -25z"/>
<path d="M1450 1026 c-20 -25 -75 -30 -111 -12 -40 20 -47 14 -20 -13 30 -30
91 -28 128 3 15 13 25 27 22 30 -3 4 -12 0 -19 -8z"/>
<path d="M1245 913 c-22 -6 -65 -33 -52 -33 5 0 17 5 28 11 11 6 54 11 96 11
69 0 80 -3 120 -32 45 -31 67 -34 44 -6 -27 32 -96 56 -157 55 -32 -1 -68 -4
-79 -6z"/>
</g>
</svg>
